# Blender 4.3.2
# www.blender.org
mtllib cube3.mtl
o Cube
v 1.000000 1.000000 -1.000000
v 1.000000 -1.000000 -1.000000
v 1.000000 1.000000 1.000000
v 1.000000 -1.000000 1.000000
v -1.000000 1.000000 -1.000000
v -1.000000 -1.000000 -1.000000
v -1.000000 1.000000 1.000000
v -1.000000 -1.000000 1.000000
vn -0.0000 1.0000 -0.0000
vn -0.0000 -0.0000 1.0000
vn -1.0000 -0.0000 -0.0000
vn -0.0000 -1.0000 -0.0000
vn 1.0000 -0.0000 -0.0000
vn -0.0000 -0.0000 -1.0000
vt 0 0
vt 0 1
vt 1 0
vt 1 1
s 0
usemtl Material
f 1/2/1 5/1/1 7/3/1 3/1/1
f 4/1/2 3/2/2 7/2/2 8/1/2
f 8/1/3 7/2/3 5/2/3 6/1/3
f 6/1/4 2/2/4 4/2/4 8/1/4
f 2/1/5 1/2/5 3/2/5 4/1/5
f 6/1/6 5/2/6 1/2/6 2/1/6
